<?xml version="1.0" encoding="utf-8"?>
<!-- Generator: Adobe Illustrator 16.0.0, SVG Export Plug-In . SVG Version: 6.00 Build 0)  -->
<!DOCTYPE svg PUBLIC "-//W3C//DTD SVG 1.1//EN" "http://www.w3.org/Graphics/SVG/1.1/DTD/svg11.dtd">
<svg version="1.1" id="Layer_1" xmlns="http://www.w3.org/2000/svg" xmlns:xlink="http://www.w3.org/1999/xlink" x="0px" y="0px"
	 width="110.939px" height="374.506px" viewBox="0 0 110.939 374.506" enable-background="new 0 0 110.939 374.506"
	 xml:space="preserve">
<title>Group 49</title>
<desc>Created with Sketch.</desc>
<rect x="0" y="0.494" display="none" fill="#FFFFFF" width="110.939" height="374.506"/>
<g id="Home">
	<g id="AP-Home-Alt-2" transform="translate(0.000000, -985.000000)">
		<g id="Group-49" transform="translate(-0.359847, 978.000000)">
			<g id="Mask">
			</g>
			<defs>
				<filter id="Adobe_OpacityMaskFilter" filterUnits="userSpaceOnUse" x="-40.536" y="7.495" width="151.837" height="398.877">
					<feColorMatrix  type="matrix" values="1 0 0 0 0  0 1 0 0 0  0 0 1 0 0  0 0 0 1 0"/>
				</filter>
			</defs>
			<mask maskUnits="userSpaceOnUse" x="-40.536" y="7.495" width="151.837" height="398.877" id="mask-2">
				<g filter="url(#Adobe_OpacityMaskFilter)">
					<rect id="path-1" x="0.36" fill="#FFFFFF" width="113" height="382"/>
				</g>
			</mask>
			<g mask="url(#mask-2)">
				
					<g transform="translate(23.000000, 270.939717) scale(-1, 1) rotate(-12.000000) translate(-23.000000, -270.939717) translate(-51.000000, 9.939717)">
					<path id="Fill-1" fill="#069A48" d="M60.961,394.257c-0.257-0.334-0.347-0.846-0.349-1.536
						c-0.024-6.634-0.423-13.262-0.033-19.905c0.253-4.384,0.119-4.371-4.361-3.872c-1.489,0.165-2.196,0.794-2.019,2.39
						c0.748,6.745,0.375,13.514,0.352,20.27c-0.006,1.686,0.046,2.472-0.29,2.831c0.047,0.242,0.087,0.481,0.111,0.723
						c0.108,0.067,0.215,0.126,0.321,0.195l4.603,0C59.818,394.947,60.375,394.576,60.961,394.257"/>
					<path id="Fill-3" fill="#7FE2B4" d="M10.954,303.43c6.976-4.129,14.066-6.397,21.603-7.515
						C20.827,294.011,9.849,290.255,0,283.453c9.201,0.152,17.872,2.601,26.424,5.92c-2.851-2.427-5.795-4.716-8.438-7.353
						c-2.634-2.634-5.088-5.413-7.014-8.673c8.988,3.746,16.361,9.673,23.036,16.658c-2.962-5.692-5.386-11.518-6.085-17.971
						c4.196,4.542,6.718,10.02,8.792,15.783c-0.016-2.478-0.155-4.94,0.504-7.437c0.887,0.492,0.914,1.231,1.077,1.847
						c1.073,4.008,1.665,8.058,1.015,12.213c-0.135,0.875-0.09,1.668,0.602,2.386c5.026,5.228,9.1,11.118,12.242,17.658
						c0.068,0.14,0.223,0.247,0.463,0.503c0.319-3.459-0.069-6.738-0.368-10.004c-0.366-3.97-0.86-7.934-1.628-11.856
						c-0.546-2.799-0.016-3.533,2.793-4.2c2.043-0.484,2.263-0.263,2.395,1.896c0.59,9.685,1.374,19.357,2.474,29.002
						c0.236,2.075,0.362,4.159,0.609,6.232c0.139,1.177-0.344,1.431-1.374,1.181c-0.654-0.157-1.324-0.266-1.988-0.383
						c-2.771-0.489-2.802-0.49-2.739-3.427c0.03-1.439-0.239-2.779-0.76-4.129c-3.067-7.954-7.515-15.031-13.276-21.316
						c-1.044-1.135-1.901-1.412-3.289-0.648c-6.444,3.547-13.402,5.46-20.678,6.29C13.708,303.751,12.62,303.998,10.954,303.43"/>
					<path id="Fill-5" fill="#7FE2B4" d="M25.795,234.312c3.961,0.249,7.511,1.532,11.393,3.134
						c-1.697-2.331-3.365-4.24-4.388-7.113c4.691,2.221,7.952,5.356,11.053,9.477c-0.836-6.527-1.901-12.422-3.528-18.207
						c-0.115-0.416-0.248-0.824-0.365-1.24c-0.892-3.18-0.716-3.443,2.483-4.116c1.127-0.239,1.035,0.642,1.15,1.219
						c0.911,4.641,1.783,9.292,2.672,13.936c0.079,0.409,0.214,0.803,0.406,1.527c1.264-2.942,2.397-5.587,3.938-8.025
						c0.924-1.461,1.974-2.821,3.11-4.115c0.232-0.267,0.48-0.661,0.892-0.512c0.577,0.212,0.312,0.72,0.255,1.117
						c-0.775,5.348-2.898,10.158-6.091,14.467c-0.918,1.242-1.23,2.321-0.709,3.716c0.151,0.399,0.222,0.831,0.315,1.251
						c0.783,3.61,0.774,3.599-2.288,5.602c-0.829,0.541-1.465,0.541-1.495-0.581c-0.054-1.882-1.144-2.389-2.798-2.713
						c-5.598-1.1-10.566-3.581-14.939-7.241C26.449,235.55,25.922,235.285,25.795,234.312"/>
					<path id="Fill-7" fill="#7FE2B4" d="M42.097,190.628c2.218-2.033,4.449-3.979,7.501-5.425
						c-0.368,1.657-1.179,2.649-1.892,3.667c-2.021,2.894-4.421,5.458-7.372,7.393c-1.416,0.929-1.586,1.885-1.156,3.388
						c1.022,3.6,1.902,7.238,2.831,10.864c0.416,1.615-0.742,3.141-2.412,3.258c-1.334,0.094-1.465-0.868-1.61-1.786
						c-0.85-5.337-1.915-10.63-3.393-15.829c-1.023-3.598-2.045-7.21-3.322-10.724c-0.864-2.38,1.165-2.212,2.169-2.692
						c1.333-0.635,1.176,0.854,1.392,1.509c0.783,2.38,1.45,4.798,2.284,7.613c0.42-6.32,2.194-11.776,5.355-16.773
						c0.296-0.467,0.615-0.921,0.946-1.361c0.217-0.287,0.433-0.72,0.825-0.644c0.543,0.103,0.463,0.654,0.486,1.064
						c0.166,2.954-0.047,5.889-0.56,8.8C43.708,185.551,42.975,188.08,42.097,190.628"/>
					<path id="Fill-9" fill="#7FE2B4" d="M27.729,172.072c-1.493-4.953-2.665-9.416-6.174-13.145
						c-5.406-5.752-8.985-12.717-11.251-20.308c-0.15-0.503-0.511-1.008-0.15-1.691c1.226,0.337,1.998,1.309,2.834,2.126
						c5.04,4.942,8.744,10.799,11.266,17.344c2.586,6.706,4.969,13.494,8.013,20.014c0.678,1.448,0.336,2.491-0.809,3.367
						c-0.844,0.647-1.858,0.625-1.892-0.596c-0.11-3.859-2.627-4.823-5.791-5.803c-5.832-1.805-10.837-5.179-15.174-9.495
						c-0.335-0.335-0.789-0.609-0.827-1.168C10.761,162.153,17.919,165.48,27.729,172.072"/>
					<path id="Fill-11" fill="#7FE2B4" d="M59.178,340.883c-0.13,7.316,0.529,14.592,1.32,21.851
						c0.149,1.36-0.197,1.992-1.607,1.956c-0.981-0.03-1.996-0.126-2.939,0.069c-1.664,0.346-1.873-0.453-1.778-1.796
						c0.18-2.449,0.333-4.899,0.406-7.35c0.223-7.688-0.085-15.349-1.287-22.955c-0.249-1.582,0.418-1.855,1.698-1.675
						c0.545,0.076,1.088,0.191,1.623,0.323c2.553,0.624,2.611,0.732,2.571,3.309C59.15,336.705,59.178,338.794,59.178,340.883"/>
					<path id="Fill-13" fill="#7FE2B4" d="M54.975,283.305c0.106,0.861-0.337,1.167-1.029,1.313c-0.96,0.202-1.923,0.4-2.861,0.692
						c-0.958,0.293-1.374-0.009-1.439-0.989c-0.186-2.813-0.395-5.624-0.595-8.435c-0.559-7.903-1.729-15.724-3.458-23.446
						c-0.332-1.495-0.157-2.359,1.394-2.715c0.174-0.043,0.33-0.158,0.488-0.257c2.217-1.342,2.319-1.355,2.588,1.185
						c1.143,10.802,2.814,21.516,4.816,32.187C54.917,283.021,54.954,283.201,54.975,283.305"/>
					<g id="Group-51" transform="translate(36.603380, 259.701425)">
						<path id="Fill-19" fill="#7FE2B4" d="M38.429,97.894c3.736,1.341,6.79,3.558,10.077,6.173
							c-0.983-2.706-2.057-5.005-2.241-8.052c3.891,3.441,6.151,7.357,7.986,12.179c1.011-6.507,1.623-12.463,1.669-18.474
							c0.002-0.429-0.012-0.857-0.008-1.292c0.026-3.302,0.267-3.502,3.527-3.264c1.152,0.085,0.817,0.904,0.765,1.491
							c-0.411,4.715-0.867,9.418-1.302,14.129c-0.038,0.418-0.02,0.833-0.034,1.58c2.029-2.472,3.853-4.699,6.01-6.614
							c1.292-1.148,2.678-2.162,4.131-3.089c0.297-0.19,0.647-0.503,0.999-0.243c0.494,0.364,0.096,0.777-0.067,1.141
							c-2.232,4.927-5.607,8.957-9.867,12.209c-1.228,0.936-1.83,1.888-1.716,3.372c0.034,0.423-0.018,0.86-0.047,1.287
							c-0.247,3.685-0.254,3.675-3.752,4.744c-0.946,0.292-1.556,0.116-1.275-0.972c0.468-1.823-0.433-2.609-1.934-3.38
							c-5.072-2.611-9.156-6.374-12.342-11.109C38.71,99.266,38.281,98.866,38.429,97.894"/>
						<path id="Fill-23" fill="#7FE2B4" d="M57.574,38.64c-0.059-5.172,0.051-9.785-2.281-14.343
							c-3.598-7.024-5.102-14.71-5.169-22.635C50.12,1.14,49.913,0.553,50.45-0.001c1.084,0.664,1.556,1.812,2.13,2.829
							c3.47,6.148,5.399,12.801,6.008,19.793c0.622,7.159,1.024,14.341,2.14,21.449c0.249,1.58-0.368,2.489-1.713,3.011
							c-0.989,0.39-1.96,0.086-1.654-1.094c0.968-3.741-1.181-5.368-3.95-7.185c-5.102-3.351-8.971-7.985-11.94-13.337
							c-0.231-0.413-0.589-0.802-0.468-1.348C44.026,24.398,49.978,29.585,57.574,38.64"/>
					</g>
					<path id="Fill-29" fill="#7FE2B4" d="M70.398,394.672c0.343-0.541,0.413-1.32,0.328-2.362
						c-0.839-10.005-1.11-20.05-2.566-30.015c-0.961-6.579-0.757-6.579,6.062-6.415c2.267,0.052,3.417,0.914,3.359,3.346
						c-0.243,10.263,1.21,20.419,2.133,30.608c0.229,2.54,0.254,3.727,0.808,4.23c-0.04,0.366-0.067,0.732-0.074,1.104
						c-0.154,0.112-0.307,0.218-0.458,0.334c-2.313,0.204-4.625,0.405-6.938,0.607C72.212,395.556,71.323,395.074,70.398,394.672"/>
					<path id="Fill-31" fill="#7FE2B4" d="M133.863,251.153c-11.062-5.305-22.05-7.794-33.558-8.489
						c17.434-4.419,33.494-11.521,47.452-23.072c-13.853,1.435-26.608,6.269-39.065,12.405c3.981-4.038,8.122-7.881,11.754-12.201
						c3.626-4.32,6.96-8.832,9.436-14.003c-13.058,6.832-23.397,16.736-32.541,28.15c3.716-8.976,6.608-18.077,6.813-27.903
						c-5.733,7.407-8.815,15.99-11.183,24.957c-0.303-3.736-0.416-7.467-1.74-11.142c-1.27,0.854-1.215,1.973-1.382,2.925
						c-1.091,6.181-1.45,12.371,0.075,18.55c0.318,1.298,0.353,2.503-0.593,3.678c-6.895,8.536-12.262,17.959-16.138,28.226
						c-0.089,0.229-0.306,0.406-0.633,0.824c-0.936-5.175-0.78-10.166-0.757-15.131c0.029-6.041,0.256-12.078,0.893-18.095
						c0.456-4.29-0.437-5.33-4.76-5.965c-3.148-0.46-3.446-0.1-3.361,3.17c0.383,14.684,0.474,29.367,0.08,44.051
						c-0.084,3.164,0,6.325-0.099,9.483c-0.056,1.789,0.705,2.108,2.225,1.603c0.969-0.329,1.965-0.578,2.952-0.84
						c4.111-1.105,4.158-1.107,3.678-5.524c-0.236-2.171-0.004-4.228,0.601-6.326c3.581-12.399,9.356-23.654,17.219-33.883
						c1.423-1.854,2.678-2.382,4.872-1.409c10.181,4.501,20.923,6.468,32.007,6.762
						C129.756,251.995,131.426,252.228,133.863,251.153"/>
					<path id="Fill-33" fill="#7FE2B4" d="M102.406,148.887c-5.939,0.898-11.126,3.296-16.769,6.221
						c2.254-3.734,4.519-6.83,5.683-11.3c-6.783,3.967-11.287,9.122-15.422,15.743c0.402-9.953,1.237-18.978,2.925-27.917
						c0.121-0.64,0.27-1.273,0.391-1.915c0.925-4.913,0.63-5.283-4.284-5.88c-1.732-0.211-1.476,1.107-1.574,1.992
						c-0.768,7.115-1.466,14.241-2.198,21.361c-0.065,0.626-0.215,1.244-0.413,2.357c-2.29-4.268-4.344-8.105-6.989-11.581
						c-1.586-2.084-3.347-3.994-5.229-5.799c-0.387-0.37-0.815-0.932-1.415-0.651c-0.839,0.393-0.372,1.127-0.233,1.716
						c1.872,7.964,5.708,14.937,11.081,21.013c1.55,1.749,2.165,3.338,1.56,5.51c-0.176,0.624-0.228,1.282-0.308,1.928
						c-0.709,5.544-0.699,5.528,4.183,8.143c1.318,0.707,2.279,0.624,2.18-1.073c-0.166-2.845,1.405-3.752,3.86-4.459
						c8.295-2.391,15.46-6.785,21.576-12.88C101.584,150.845,102.343,150.369,102.406,148.887"/>
					<path id="Fill-35" fill="#7FE2B4" d="M72.088,85.166c-3.61-2.775-7.235-5.418-12.02-7.201c0.769,2.454,2.124,3.844,3.332,5.287
						c3.429,4.098,7.38,7.647,12.086,10.178c2.259,1.215,2.639,2.636,2.192,4.955c-1.069,5.561-1.917,11.165-2.846,16.756
						c-0.413,2.487,1.531,4.638,4.066,4.594c2.021-0.034,2.092-1.5,2.194-2.903c0.582-8.159,1.489-16.28,3.034-24.313
						c1.069-5.561,2.135-11.138,3.597-16.603c0.99-3.7-2.048-3.184-3.619-3.774c-2.095-0.784-1.662,1.441-1.902,2.456
						c-0.871,3.691-1.559,7.427-2.444,11.778c-1.464-9.477-4.856-17.468-10.278-24.587c-0.508-0.665-1.049-1.302-1.606-1.924
						C67.51,59.458,67.13,58.834,66.549,59c-0.808,0.229-0.611,1.049-0.591,1.668c0.137,4.478,0.842,8.873,1.999,13.193
						C68.992,77.722,70.43,81.438,72.088,85.166"/>
					<path id="Fill-37" fill="#7FE2B4" d="M91.312,55.299c1.601-7.663,2.783-14.546,7.581-20.633
						c7.396-9.38,11.878-20.352,14.297-32.097c0.16-0.777,0.637-1.585,0.002-2.569c-1.803,0.669-2.84,2.239-3.989,3.579
						c-6.949,8.114-11.766,17.429-14.711,27.631c-3.019,10.452-5.715,20.999-9.454,31.228c-0.83,2.272-0.182,3.801,1.662,4.973
						c1.361,0.864,2.888,0.698,2.78-1.147c-0.344-5.835,3.323-7.622,7.964-9.513c8.561-3.485,15.662-9.233,21.635-16.311
						c0.462-0.548,1.109-1.019,1.093-1.864C115.594,38.112,105.241,44.073,91.312,55.299"/>
					<path id="Fill-39" fill="#7FE2B4" d="M66.074,313.959c1.157,11.014,1.117,22.07,0.878,33.123
						c-0.043,2.067,0.564,2.971,2.682,2.729c1.477-0.169,2.993-0.449,4.443-0.277c2.555,0.299,2.764-0.932,2.443-2.943
						c-0.588-3.666-1.144-7.34-1.574-11.031c-1.349-11.554-1.89-23.152-1.08-34.773c0.17-2.418-0.873-2.742-2.777-2.305
						c-0.813,0.187-1.617,0.435-2.407,0.702c-3.768,1.274-3.84,1.444-3.441,5.328C65.565,307.654,65.8,310.811,66.074,313.959"/>
					<path id="Fill-41" fill="#7FE2B4" d="M64.845,226.593c-0.047,1.312,0.662,1.716,1.724,1.844c1.473,0.176,2.952,0.35,4.4,0.665
						c1.486,0.321,2.072-0.194,2.04-1.676c-0.09-4.264-0.142-8.53-0.21-12.796c-0.195-11.99,0.54-23.932,2.132-35.809
						c0.305-2.297-0.074-3.574-2.458-3.909c-0.265-0.038-0.519-0.198-0.768-0.321c-3.522-1.733-3.678-1.738-3.748,2.131
						c-0.305,16.429-1.414,32.809-3.036,49.159C64.897,226.156,64.863,226.434,64.845,226.593"/>
				</g>
			</g>
		</g>
	</g>
</g>
</svg>
