<?xml version="1.0" encoding="utf-8"?>
<!-- Generator: Adobe Illustrator 26.0.3, SVG Export Plug-In . SVG Version: 6.00 Build 0)  -->
<svg version="1.1" id="logo" xmlns="http://www.w3.org/2000/svg" xmlns:xlink="http://www.w3.org/1999/xlink" x="0px" y="0px"
	 viewBox="0 0 102 40" style="enable-background:new 0 0 102 40;" xml:space="preserve">
<style type="text/css">
	.st0{display:none;fill-rule:evenodd;clip-rule:evenodd;fill:url(#SVGID_1_);}
	.st1{display:none;fill-rule:evenodd;clip-rule:evenodd;fill:url(#SVGID_00000098212934950086851660000002474892308142839716_);}
	.st2{display:none;fill-rule:evenodd;clip-rule:evenodd;fill:url(#SVGID_00000121983246404867574550000001715028958741637267_);}
	.st3{fill:#0D65AF;}
	.st4{fill-rule:evenodd;clip-rule:evenodd;}
	.st5{fill-rule:evenodd;clip-rule:evenodd;fill:#FFFFFF;}
	.st6{fill-rule:evenodd;clip-rule:evenodd;fill:url(#SVGID_00000031167619192628919690000002464185204007524030_);}
	.st7{opacity:0.3;fill-rule:evenodd;clip-rule:evenodd;fill:#FFFFFF;}
	.st8{opacity:0.3;fill:#FFFFFF;}
	.st9{fill-rule:evenodd;clip-rule:evenodd;fill:url(#SVGID_00000145019182740298350150000009923919426069065865_);}
	.st10{fill-rule:evenodd;clip-rule:evenodd;fill:url(#SVGID_00000004533256194635649470000007198058795502653339_);}
	.st11{fill-rule:evenodd;clip-rule:evenodd;fill:url(#SVGID_00000047026794547549486170000005555914783800441998_);}
	.st12{fill:url(#SVGID_00000063624240895553713730000011649425950789809818_);}
	.st13{opacity:0.12;fill-rule:evenodd;clip-rule:evenodd;}
</style>
<radialGradient id="SVGID_1_" cx="146.0653" cy="71.3625" r="13.4806" gradientTransform="matrix(0.4485 0 0 0.0698 -58.465 41.6868)" gradientUnits="userSpaceOnUse">
	<stop  offset="0.1043" style="stop-color:#4F4C4D"/>
	<stop  offset="1" style="stop-color:#4F4C4D;stop-opacity:0"/>
</radialGradient>
<path class="st0" d="M13.81,46.73c0,0.61-3.06,1.1-6.84,1.1s-6.84-0.49-6.84-1.1c0-0.61,3.06-1.1,6.84-1.1S13.81,46.13,13.81,46.73z
	"/>
<radialGradient id="SVGID_00000092428447899844770910000000789074580966060475_" cx="55.5701" cy="24.7265" r="13.4805" gradientTransform="matrix(1.0966 0 0 0.151 -41.8819 41.4758)" gradientUnits="userSpaceOnUse">
	<stop  offset="0" style="stop-color:#4F4C4D"/>
	<stop  offset="0.8712" style="stop-color:#4F4C4D;stop-opacity:0"/>
</radialGradient>
<path style="display:none;fill-rule:evenodd;clip-rule:evenodd;fill:url(#SVGID_00000092428447899844770910000000789074580966060475_);" d="
	M35.59,45.35c0,1.31-7.49,2.37-16.73,2.37c-9.24,0-16.73-1.06-16.73-2.37c0-1.31,7.49-2.37,16.73-2.37
	C28.1,42.98,35.59,44.04,35.59,45.35z"/>
<radialGradient id="SVGID_00000106827490689320616000000004012604093065400970_" cx="302.9994" cy="144.8515" r="7.7393" gradientTransform="matrix(2.0001 0 0 0.1434 -571.0331 25.8599)" gradientUnits="userSpaceOnUse">
	<stop  offset="0" style="stop-color:#4F4C4D"/>
	<stop  offset="0.8712" style="stop-color:#4F4C4D;stop-opacity:0"/>
</radialGradient>
<path style="display:none;fill-rule:evenodd;clip-rule:evenodd;fill:url(#SVGID_00000106827490689320616000000004012604093065400970_);" d="
	M52.31,46.71c0,0.72-7.84,1.29-17.52,1.29c-9.68,0-17.52-0.58-17.52-1.29c0-0.71,7.84-1.29,17.52-1.29
	C44.46,45.41,52.31,45.99,52.31,46.71z"/>
<g>
	<g>
		<path class="st3" d="M46.52,28.65c0,0.92-0.11,1.76-0.34,2.51c-0.23,0.75-0.56,1.4-1,1.94c-0.44,0.54-0.98,0.97-1.63,1.27
			c-0.65,0.3-1.39,0.45-2.24,0.45c-0.47,0-0.9-0.05-1.31-0.14c-0.41-0.09-0.8-0.22-1.18-0.38v4.48h-3.37V23.11
			c0.3-0.09,0.65-0.18,1.04-0.26c0.39-0.08,0.8-0.15,1.23-0.21c0.43-0.06,0.87-0.11,1.31-0.15c0.44-0.04,0.87-0.06,1.28-0.06
			c0.98,0,1.85,0.15,2.62,0.44c0.77,0.29,1.42,0.71,1.95,1.24c0.53,0.54,0.93,1.19,1.21,1.96C46.38,26.84,46.52,27.7,46.52,28.65z
			 M43.08,28.74c0-1.04-0.23-1.87-0.7-2.5c-0.47-0.63-1.16-0.94-2.08-0.94c-0.3,0-0.58,0.01-0.84,0.03
			c-0.26,0.02-0.47,0.05-0.63,0.08v6.08c0.21,0.14,0.49,0.25,0.83,0.34c0.34,0.09,0.68,0.14,1.03,0.14
			C42.28,31.97,43.08,30.9,43.08,28.74z"/>
		<path class="st3" d="M53.4,22.38c1,0,1.82,0.11,2.49,0.34c0.66,0.23,1.19,0.55,1.59,0.97c0.4,0.42,0.68,0.93,0.85,1.54
			c0.17,0.6,0.25,1.27,0.25,2.01v7.01c-0.48,0.11-1.15,0.23-2.01,0.37c-0.86,0.14-1.9,0.21-3.12,0.21c-0.77,0-1.47-0.07-2.09-0.2
			c-0.63-0.14-1.16-0.36-1.62-0.67c-0.45-0.31-0.8-0.71-1.04-1.21c-0.24-0.5-0.36-1.11-0.36-1.83c0-0.69,0.14-1.28,0.42-1.76
			c0.28-0.48,0.65-0.87,1.12-1.15c0.47-0.29,1-0.49,1.61-0.62c0.6-0.13,1.23-0.19,1.88-0.19c0.44,0,0.83,0.02,1.16,0.06
			c0.34,0.04,0.61,0.09,0.83,0.15v-0.32c0-0.57-0.17-1.03-0.52-1.38c-0.35-0.35-0.95-0.52-1.81-0.52c-0.57,0-1.14,0.04-1.7,0.12
			c-0.56,0.08-1.04,0.2-1.45,0.35l-0.43-2.71c0.2-0.06,0.44-0.12,0.74-0.19c0.29-0.07,0.61-0.13,0.96-0.18
			c0.35-0.05,0.71-0.1,1.1-0.14C52.62,22.4,53,22.38,53.4,22.38z M53.67,32.25c0.33,0,0.65-0.01,0.95-0.02
			c0.3-0.01,0.54-0.04,0.72-0.07V29.6c-0.14-0.03-0.34-0.06-0.61-0.09c-0.27-0.03-0.52-0.05-0.75-0.05c-0.32,0-0.61,0.02-0.89,0.06
			c-0.28,0.04-0.52,0.11-0.73,0.22c-0.21,0.11-0.38,0.25-0.5,0.43c-0.12,0.18-0.18,0.41-0.18,0.68c0,0.53,0.18,0.89,0.53,1.1
			C52.56,32.14,53.05,32.25,53.67,32.25z"/>
		<path class="st3" d="M61.63,23.11c0.57-0.17,1.31-0.32,2.22-0.46c0.9-0.14,1.85-0.21,2.85-0.21c1.01,0,1.85,0.13,2.52,0.4
			c0.67,0.26,1.2,0.64,1.59,1.12c0.39,0.48,0.67,1.06,0.84,1.72c0.17,0.66,0.25,1.4,0.25,2.22v6.72h-3.37v-6.31
			c0-1.09-0.14-1.85-0.43-2.31c-0.29-0.45-0.82-0.68-1.61-0.68c-0.24,0-0.5,0.01-0.77,0.03c-0.27,0.02-0.51,0.05-0.72,0.08v9.18
			h-3.37V23.11z"/>
		<path class="st3" d="M85.44,34.21c-0.3,0.09-0.65,0.18-1.04,0.26c-0.39,0.08-0.8,0.15-1.23,0.21c-0.43,0.06-0.87,0.11-1.31,0.15
			c-0.44,0.04-0.87,0.06-1.28,0.06c-0.98,0-1.85-0.14-2.62-0.43c-0.77-0.29-1.42-0.7-1.94-1.23c-0.53-0.53-0.93-1.18-1.21-1.94
			c-0.28-0.76-0.42-1.62-0.42-2.57c0-0.96,0.12-1.84,0.36-2.61c0.24-0.78,0.59-1.44,1.04-1.98c0.45-0.54,1.01-0.96,1.66-1.24
			c0.66-0.29,1.41-0.43,2.25-0.43c0.47,0,0.89,0.05,1.26,0.14c0.37,0.09,0.74,0.22,1.12,0.38v-5.38l3.37-0.54V34.21z M77.82,28.56
			c0,1.04,0.23,1.88,0.7,2.51c0.47,0.63,1.16,0.95,2.08,0.95c0.3,0,0.58-0.01,0.84-0.03c0.26-0.02,0.47-0.05,0.63-0.08v-6.13
			c-0.21-0.14-0.49-0.25-0.83-0.34c-0.34-0.09-0.68-0.14-1.03-0.14C78.62,25.3,77.82,26.39,77.82,28.56z"/>
		<path class="st3" d="M92.88,22.38c1,0,1.82,0.11,2.49,0.34c0.66,0.23,1.19,0.55,1.59,0.97c0.4,0.42,0.68,0.93,0.85,1.54
			c0.17,0.6,0.25,1.27,0.25,2.01v7.01c-0.48,0.11-1.15,0.23-2.01,0.37c-0.86,0.14-1.9,0.21-3.12,0.21c-0.77,0-1.47-0.07-2.09-0.2
			c-0.63-0.14-1.16-0.36-1.62-0.67c-0.45-0.31-0.8-0.71-1.04-1.21c-0.24-0.5-0.36-1.11-0.36-1.83c0-0.69,0.14-1.28,0.42-1.76
			c0.28-0.48,0.65-0.87,1.12-1.15c0.47-0.29,1-0.49,1.61-0.62c0.6-0.13,1.23-0.19,1.88-0.19c0.44,0,0.83,0.02,1.16,0.06
			c0.34,0.04,0.61,0.09,0.83,0.15v-0.32c0-0.57-0.17-1.03-0.52-1.38c-0.35-0.35-0.95-0.52-1.81-0.52c-0.57,0-1.14,0.04-1.7,0.12
			c-0.56,0.08-1.04,0.2-1.45,0.35l-0.43-2.71c0.2-0.06,0.44-0.12,0.74-0.19c0.29-0.07,0.61-0.13,0.96-0.18
			c0.35-0.05,0.71-0.1,1.1-0.14C92.1,22.4,92.49,22.38,92.88,22.38z M93.15,32.25c0.33,0,0.65-0.01,0.95-0.02
			c0.3-0.01,0.54-0.04,0.72-0.07V29.6c-0.14-0.03-0.34-0.06-0.61-0.09c-0.27-0.03-0.52-0.05-0.75-0.05c-0.32,0-0.61,0.02-0.89,0.06
			c-0.28,0.04-0.52,0.11-0.73,0.22c-0.21,0.11-0.38,0.25-0.5,0.43c-0.12,0.18-0.18,0.41-0.18,0.68c0,0.53,0.18,0.89,0.53,1.1
			C92.05,32.14,92.54,32.25,93.15,32.25z"/>
	</g>
	<g>
		<path d="M41.49,4.41c1,0,1.82,0.11,2.49,0.34c0.66,0.23,1.19,0.55,1.59,0.97c0.4,0.42,0.68,0.94,0.85,1.54
			c0.17,0.6,0.25,1.27,0.25,2.01v7.01c-0.48,0.11-1.15,0.23-2.01,0.37c-0.86,0.14-1.9,0.21-3.12,0.21c-0.77,0-1.47-0.07-2.09-0.2
			c-0.63-0.14-1.16-0.36-1.62-0.67c-0.45-0.31-0.8-0.71-1.04-1.21c-0.24-0.5-0.36-1.11-0.36-1.83c0-0.69,0.14-1.28,0.42-1.76
			c0.28-0.48,0.65-0.87,1.12-1.15c0.47-0.29,1-0.49,1.61-0.62c0.6-0.13,1.23-0.19,1.88-0.19c0.44,0,0.83,0.02,1.16,0.06
			c0.34,0.04,0.61,0.09,0.83,0.15V9.11c0-0.57-0.17-1.03-0.52-1.38c-0.35-0.35-0.95-0.52-1.81-0.52c-0.57,0-1.14,0.04-1.7,0.12
			c-0.56,0.08-1.04,0.2-1.45,0.35l-0.43-2.71c0.2-0.06,0.44-0.12,0.74-0.19c0.29-0.07,0.61-0.13,0.96-0.18
			c0.35-0.05,0.71-0.1,1.1-0.14C40.71,4.43,41.1,4.41,41.49,4.41z M41.76,14.27c0.33,0,0.65-0.01,0.95-0.02
			c0.3-0.01,0.54-0.04,0.72-0.07v-2.56c-0.14-0.03-0.34-0.06-0.61-0.09c-0.27-0.03-0.52-0.05-0.75-0.05c-0.32,0-0.61,0.02-0.89,0.06
			c-0.28,0.04-0.52,0.11-0.73,0.21c-0.21,0.11-0.38,0.25-0.5,0.43c-0.12,0.18-0.18,0.41-0.18,0.68c0,0.53,0.18,0.89,0.53,1.1
			C40.66,14.17,41.14,14.27,41.76,14.27z"/>
		<path d="M53.14,14.2c0.62,0,1.06-0.06,1.31-0.18c0.26-0.12,0.38-0.35,0.38-0.7c0-0.27-0.17-0.51-0.5-0.71
			c-0.33-0.2-0.84-0.43-1.52-0.69c-0.53-0.2-1.01-0.4-1.44-0.61c-0.43-0.21-0.8-0.46-1.1-0.76c-0.3-0.29-0.54-0.64-0.7-1.05
			c-0.17-0.41-0.25-0.9-0.25-1.47c0-1.12,0.41-2,1.24-2.65c0.83-0.65,1.97-0.97,3.42-0.97c0.72,0,1.42,0.06,2.08,0.19
			c0.66,0.13,1.19,0.27,1.58,0.42l-0.59,2.62c-0.39-0.14-0.82-0.26-1.28-0.36c-0.46-0.11-0.98-0.16-1.55-0.16
			c-1.06,0-1.58,0.29-1.58,0.88c0,0.14,0.02,0.26,0.07,0.36c0.05,0.11,0.14,0.21,0.27,0.31c0.14,0.1,0.32,0.2,0.55,0.32
			c0.23,0.11,0.53,0.24,0.89,0.38c0.74,0.27,1.35,0.54,1.83,0.81c0.48,0.27,0.86,0.55,1.14,0.86c0.28,0.31,0.48,0.65,0.59,1.03
			c0.11,0.38,0.17,0.81,0.17,1.31c0,1.17-0.44,2.06-1.32,2.66c-0.88,0.6-2.13,0.9-3.74,0.9c-1.06,0-1.93-0.09-2.63-0.27
			c-0.7-0.18-1.19-0.33-1.46-0.45l0.57-2.74c0.57,0.23,1.16,0.4,1.76,0.53C51.95,14.14,52.55,14.2,53.14,14.2z"/>
		<path d="M64.11,14.2c0.62,0,1.06-0.06,1.31-0.18c0.26-0.12,0.38-0.35,0.38-0.7c0-0.27-0.17-0.51-0.5-0.71
			c-0.33-0.2-0.84-0.43-1.52-0.69c-0.53-0.2-1.01-0.4-1.44-0.61c-0.43-0.21-0.8-0.46-1.1-0.76c-0.3-0.29-0.54-0.64-0.7-1.05
			c-0.17-0.41-0.25-0.9-0.25-1.47c0-1.12,0.41-2,1.24-2.65c0.83-0.65,1.97-0.97,3.42-0.97c0.72,0,1.42,0.06,2.08,0.19
			c0.66,0.13,1.19,0.27,1.58,0.42l-0.59,2.62c-0.39-0.14-0.82-0.26-1.28-0.36c-0.46-0.11-0.98-0.16-1.55-0.16
			c-1.06,0-1.58,0.29-1.58,0.88c0,0.14,0.02,0.26,0.07,0.36c0.05,0.11,0.14,0.21,0.27,0.31c0.14,0.1,0.32,0.2,0.55,0.32
			c0.23,0.11,0.53,0.24,0.89,0.38c0.74,0.27,1.35,0.54,1.83,0.81c0.48,0.27,0.86,0.55,1.14,0.86c0.28,0.31,0.48,0.65,0.59,1.03
			c0.11,0.38,0.17,0.81,0.17,1.31c0,1.17-0.44,2.06-1.32,2.66c-0.88,0.6-2.13,0.9-3.74,0.9c-1.06,0-1.93-0.09-2.63-0.27
			c-0.7-0.18-1.19-0.33-1.46-0.45l0.57-2.74c0.57,0.23,1.16,0.4,1.76,0.53C62.92,14.14,63.52,14.2,64.11,14.2z"/>
		<path d="M71.09,10.76c0-1.06,0.16-1.98,0.49-2.77c0.32-0.79,0.75-1.45,1.28-1.98c0.53-0.53,1.13-0.93,1.82-1.2
			c0.69-0.27,1.39-0.41,2.11-0.41c1.69,0,3.02,0.52,4,1.55c0.98,1.03,1.47,2.55,1.47,4.56c0,0.2-0.01,0.41-0.02,0.64
			c-0.02,0.23-0.03,0.44-0.05,0.62h-7.64c0.08,0.69,0.4,1.24,0.97,1.65c0.57,0.41,1.34,0.61,2.31,0.61c0.62,0,1.22-0.06,1.82-0.17
			c0.6-0.11,1.08-0.25,1.46-0.42l0.45,2.74c-0.18,0.09-0.42,0.18-0.72,0.27c-0.3,0.09-0.64,0.17-1.01,0.24
			c-0.37,0.07-0.77,0.12-1.19,0.17c-0.42,0.05-0.84,0.07-1.27,0.07c-1.07,0-2-0.16-2.79-0.47s-1.45-0.75-1.97-1.3
			c-0.52-0.55-0.9-1.2-1.15-1.96C71.22,12.45,71.09,11.64,71.09,10.76z M79.01,9.47c-0.02-0.29-0.06-0.57-0.15-0.84
			c-0.08-0.27-0.21-0.51-0.38-0.72c-0.17-0.21-0.39-0.38-0.66-0.52c-0.26-0.14-0.59-0.2-0.98-0.2c-0.38,0-0.7,0.06-0.97,0.19
			c-0.27,0.13-0.5,0.3-0.68,0.51c-0.18,0.21-0.32,0.46-0.42,0.74c-0.1,0.28-0.17,0.56-0.21,0.85H79.01z"/>
		<path d="M84.75,1.76l3.37-0.54v3.51h4.05v2.8h-4.05v4.18c0,0.71,0.12,1.27,0.37,1.7c0.25,0.42,0.75,0.63,1.5,0.63
			c0.36,0,0.73-0.03,1.12-0.1c0.38-0.07,0.74-0.16,1.05-0.28l0.48,2.62c-0.41,0.17-0.86,0.31-1.36,0.43
			c-0.5,0.12-1.11,0.18-1.83,0.18c-0.92,0-1.68-0.12-2.28-0.37c-0.6-0.25-1.09-0.6-1.45-1.04c-0.36-0.44-0.61-0.98-0.76-1.62
			c-0.14-0.63-0.21-1.33-0.21-2.1V1.76z"/>
	</g>
	<path class="st4" d="M32.4,18.86c-0.29-1.1-0.75-2.1-1.31-3.02c5.1-11.99-13.21-17.46-12.6-5.83c0,0.01,0.02,0.01,0.05,0.02
		c-1.29,0.11-2.6,0.36-3.92,0.8c-1.9,0.63-3.62,1.58-5.13,2.73c-6.14-8.79-12.2,5.27-5.71,8.29C3.2,24,3.14,26.24,3.72,28.42
		c0.96,3.58,3.47,6.26,6.74,7.71c3.17,3.03,8.45,3.11,12.6-0.06c0.21-0.16,0.41-0.33,0.61-0.5C30.28,32.32,34.12,25.26,32.4,18.86z"
		/>
	<path class="st5" d="M31.09,19.31c-1.77-6.62-9.21-9.98-16.62-7.51c-7.4,2.47-11.97,9.83-10.2,16.45c0.84,3.15,2.97,5.56,5.77,6.95
		c2.91,3.22,8.12,3.44,12.17,0.34c0.27-0.21,0.53-0.43,0.78-0.66C29.14,31.84,32.69,25.27,31.09,19.31z M12.08,28.29
		c-0.17,0.46-1.2,1.33-1.86,1.37c-0.51,0.03-1.81-0.84-1.84-1.23c-0.02-0.3,0.17-0.46,0.42-0.48l2.63-0.45
		C11.85,27.47,12.24,27.87,12.08,28.29z M4.49,24.06c-0.32-1.83,0.62-4.21,2.61-4.56c2.66-0.47,4.12,1.53,4.01,3.39
		c-0.06,0.98-2.03,1.09-3.91,3.9C6.45,27.93,4.74,25.49,4.49,24.06z M18.35,29.44c-0.06-0.02-0.22,0.02-0.26,0.1
		c-1.03,1.91-3.29,4.61-5.76,4.49c-1.84-0.09-3.48-1.18-4.35-2.08c-0.04-0.04-0.18-0.04-0.22,0c-0.21,0.2-0.52,0.33-0.63,0.28
		c0.13-0.01,0.42-0.2,0.59-0.54c0.16-0.33,0.06-0.74,0.05-0.98c0.09,0.2,0.21,0.5,0.2,0.77c0,0.04,0.05,0.18,0.08,0.2
		c0.68,0.6,1.63,1.15,3.63,0.87c2.16-0.31,4.71-2.07,6.1-3.21c0.06-0.05,0.11-0.21,0.04-0.27c-0.38-0.36-0.63-0.85-0.58-1.06
		c0.05,0.26,0.48,0.77,1.19,1.02c0.69,0.24,1.46-0.06,1.93-0.14C19.87,29.2,19.01,29.66,18.35,29.44z M19.62,24.87
		c-3.44-2.51-5.83-1.8-6.32-2.94c-0.93-2.15-0.06-5.16,3.3-5.75c2.52-0.44,4.66,1.97,5.07,4.28C21.99,22.26,21.02,25.89,19.62,24.87
		z"/>
	
		<linearGradient id="SVGID_00000050659011414851110010000008604082509398881962_" gradientUnits="userSpaceOnUse" x1="21.9564" y1="36.0161" x2="21.9564" y2="11.2729">
		<stop  offset="0" style="stop-color:#FFFFFF;stop-opacity:0"/>
		<stop  offset="1" style="stop-color:#000000;stop-opacity:0.2"/>
	</linearGradient>
	<path style="fill-rule:evenodd;clip-rule:evenodd;fill:url(#SVGID_00000050659011414851110010000008604082509398881962_);" d="
		M12.82,12.57c0.41-0.18,0.84-0.34,1.28-0.49c7.4-2.47,14.84,0.89,16.62,7.51c1.77,6.62-2.82,13.82-10.23,16.29
		c-0.15,0.05-0.29,0.1-0.44,0.14c6.64-2.85,2.87-9.04,7.42-15.54C29.84,17.07,20.08,10.37,12.82,12.57z"/>
	<path class="st7" d="M19.68,6.54c2.59-4.96,12.28-1.5,11.29,5.97C30.44,6.41,23.08,3.53,19.68,6.54z"/>
	<path class="st7" d="M1.35,17.5c-0.23-4.45,3.37-8.93,7.69-3.84c-0.07,0.06-0.23,0.19-0.37,0.37C4.92,9.83,1.56,13.37,1.35,17.5z"
		/>
	<path class="st8" d="M15,21.98c0,0-1.07-0.19-1.22-0.37c-0.15-0.19-1.37-3.11,2.3-4.55C14.92,18.09,14.02,19.88,15,21.98z"/>
	<path class="st8" d="M6.53,25.26c0,0-0.28,0.86-0.47,0.86c-0.19,0-3-3.82,0.64-5.81C5.18,22.34,5.6,24.1,6.53,25.26z"/>
	
		<linearGradient id="SVGID_00000132778170805716995850000013308468748084429230_" gradientUnits="userSpaceOnUse" x1="12.7384" y1="20.2458" x2="22.0604" y2="20.2458">
		<stop  offset="0" style="stop-color:#FFFFFF;stop-opacity:0"/>
		<stop  offset="1" style="stop-color:#000000;stop-opacity:0.2"/>
	</linearGradient>
	<path style="fill-rule:evenodd;clip-rule:evenodd;fill:url(#SVGID_00000132778170805716995850000013308468748084429230_);" d="
		M22,20.11c-0.43-2.45-2.71-5.01-5.38-4.54c-3.56,0.63-4.5,3.82-3.51,6.1c0.05,0.12,0.13,0.22,0.23,0.31
		c-0.01-0.02-0.03-0.04-0.04-0.06c-0.93-2.15-0.06-5.16,3.3-5.75c2.52-0.44,4.66,1.97,5.07,4.28c0.25,1.45-0.32,4.06-1.28,4.51
		C21.56,24.86,22.29,21.77,22,20.11z"/>
	<g>
		
			<linearGradient id="SVGID_00000119081765272359482660000015072438824173424265_" gradientUnits="userSpaceOnUse" x1="6.8966" y1="25.5063" x2="10.1295" y2="25.5063">
			<stop  offset="0" style="stop-color:#FFFFFF;stop-opacity:0"/>
			<stop  offset="1" style="stop-color:#000000;stop-opacity:0.2"/>
		</linearGradient>
		<path style="fill-rule:evenodd;clip-rule:evenodd;fill:url(#SVGID_00000119081765272359482660000015072438824173424265_);" d="
			M7.21,26.79c-0.09,0.14-0.2,0.22-0.31,0.26c0.17-0.02,0.32-0.11,0.45-0.3c0.99-1.48,2-2.25,2.78-2.79
			C9.37,24.47,8.28,25.19,7.21,26.79z"/>
		
			<linearGradient id="SVGID_00000179648024802508939050000017936529526361497732_" gradientUnits="userSpaceOnUse" x1="4.3881" y1="21.4492" x2="11.5146" y2="21.4492">
			<stop  offset="0" style="stop-color:#FFFFFF;stop-opacity:0"/>
			<stop  offset="1" style="stop-color:#000000;stop-opacity:0.2"/>
		</linearGradient>
		<path style="fill-rule:evenodd;clip-rule:evenodd;fill:url(#SVGID_00000179648024802508939050000017936529526361497732_);" d="
			M7.24,18.99c-2.12,0.37-3.12,2.9-2.78,4.85c0.01,0.04,0.02,0.09,0.03,0.13C4.2,22.16,5.14,19.85,7.1,19.5
			c2.66-0.47,4.12,1.53,4.01,3.39c-0.02,0.36-0.31,0.61-0.76,0.92c0.67-0.45,1.12-0.74,1.15-1.21C11.63,20.63,10.06,18.5,7.24,18.99
			z"/>
	</g>
	
		<linearGradient id="SVGID_00000007420584904967781170000006834567852013478288_" gradientUnits="userSpaceOnUse" x1="9.102" y1="37.4828" x2="9.102" y2="16.718">
		<stop  offset="0" style="stop-color:#FFFFFF;stop-opacity:0"/>
		<stop  offset="1" style="stop-color:#000000;stop-opacity:0.2"/>
	</linearGradient>
	<path style="fill:url(#SVGID_00000007420584904967781170000006834567852013478288_);" d="M14.18,37.09
		c-1.32-0.41-2.52-1.14-3.47-2.19c-2.85-1.42-5.02-3.86-5.88-7.05c-0.34-1.26-0.43-2.54-0.34-3.81c-0.17-1.02,0.03-2.18,0.6-3.09
		c0.5-1.49,1.28-2.93,2.28-4.23C4.57,20,3.32,24.26,4.39,28.25c0.84,3.13,2.95,5.52,5.72,6.9c1.09,1.21,2.51,1.99,4.07,2.33
		L14.18,37.09z"/>
	<path class="st13" d="M10.22,29.66c-0.46,0.03-1.55-0.67-1.78-1.1c-0.06,0.08-0.1,0.18-0.09,0.32c0.03,0.4,1.33,1.26,1.84,1.23
		c0.66-0.04,1.69-0.91,1.86-1.37c0.05-0.13,0.03-0.25,0-0.37C11.78,28.85,10.84,29.62,10.22,29.66z"/>
	<path id="Left_Pupil_00000122682161984636129340000016352001676420010372_" class="st5" d="M10.32,23.1
		c-0.55,0.31-1.19,0.26-1.45-0.1c-0.26-0.37,0.01-0.94,0.55-1.24c0.22-0.12,0.56-0.16,0.56-0.16L9.97,21.6
		c-0.18,0.08-0.27,0.25-0.2,0.37c0.07,0.12,0.28,0.16,0.46,0.07c0.18-0.08,0.27-0.25,0.19-0.37c-0.03-0.06-0.13-0.1-0.21-0.11
		c-0.34-0.05-0.79,0-1.15,0.21c-0.66,0.37-0.93,1.03-0.62,1.47c0.31,0.44,1.09,0.49,1.75,0.12c0.38-0.21,0.61-0.52,0.7-0.83
		C10.77,22.74,10.58,22.95,10.32,23.1z"/>
	<path id="Right_Pupil_00000160180823340597903210000013547521657992986550_" class="st5" d="M20.03,21.53
		c-0.63-0.04-1.14-0.44-1.15-0.89c-0.01-0.45,0.53-0.77,1.15-0.72c0.25,0.02,0.56,0.17,0.56,0.17l-0.02,0
		c-0.2-0.03-0.36,0.06-0.37,0.2c-0.01,0.14,0.14,0.28,0.34,0.31c0.2,0.03,0.36-0.06,0.37-0.2c0-0.07-0.05-0.16-0.11-0.21
		c-0.25-0.23-0.66-0.44-1.08-0.47c-0.75-0.05-1.35,0.34-1.33,0.87c0.01,0.54,0.64,1.02,1.39,1.07c0.43,0.03,0.8-0.1,1.04-0.31
		C20.6,21.48,20.33,21.55,20.03,21.53z"/>
	<g>
		<path d="M99.55,20.01c0.82,0,1.45,0.63,1.45,1.44c0,0.83-0.63,1.46-1.46,1.46c-0.83,0-1.48-0.64-1.48-1.46
			C98.06,20.65,98.71,20.01,99.55,20.01L99.55,20.01z M99.53,20.27c-0.65,0-1.15,0.54-1.15,1.19c0,0.67,0.5,1.2,1.17,1.2
			c0.64,0.01,1.13-0.53,1.13-1.19C100.68,20.8,100.19,20.27,99.53,20.27L99.53,20.27z M99.28,22.26h-0.28v-1.52
			c0.15-0.03,0.32-0.05,0.53-0.05c0.25,0,0.38,0.05,0.47,0.12c0.09,0.06,0.15,0.18,0.15,0.33c0,0.18-0.14,0.3-0.29,0.35v0.02
			c0.13,0.05,0.2,0.17,0.24,0.37c0.05,0.23,0.08,0.32,0.12,0.37h-0.29c-0.05-0.05-0.08-0.19-0.13-0.39
			c-0.04-0.17-0.14-0.24-0.34-0.24h-0.18V22.26z M99.28,21.4h0.19c0.2,0,0.39-0.06,0.39-0.24c0-0.15-0.1-0.25-0.36-0.25
			c-0.11,0-0.17,0.01-0.22,0.02V21.4z"/>
	</g>
</g>
</svg>
